<?xml version="1.0" encoding="utf-8"?>
<!-- Generator: Adobe Illustrator 19.2.1, SVG Export Plug-In . SVG Version: 6.00 Build 0)  -->
<svg version="1.1" id="Layer_1" xmlns="http://www.w3.org/2000/svg" xmlns:xlink="http://www.w3.org/1999/xlink" x="0px" y="0px"
	 viewBox="0 0 92.7 92.7" style="enable-background:new 0 0 92.7 92.7;" xml:space="preserve">
<style type="text/css">
	.st0{fill:#007066;}
	.st1{clip-path:url(#SVGID_4_);fill:#FFFFFE;}
	.st2{clip-path:url(#SVGID_6_);fill:#FFFFFE;}
	.st3{clip-path:url(#SVGID_8_);fill:#FFFFFE;}
	.st4{clip-path:url(#SVGID_10_);fill:#FFFFFE;}
	.st5{clip-path:url(#SVGID_12_);fill:#FFFFFE;}
	.st6{clip-path:url(#SVGID_14_);fill:#FFFFFE;}
	.st7{clip-path:url(#SVGID_16_);fill:#FFFFFE;}
	.st8{clip-path:url(#SVGID_18_);fill:#FFFFFE;}
	.st9{clip-path:url(#SVGID_20_);fill:#FFFFFE;}
	.st10{clip-path:url(#SVGID_22_);fill:#FFFFFE;}
	.st11{clip-path:url(#SVGID_24_);fill:#FFFFFE;}
	.st12{clip-path:url(#SVGID_26_);fill:#FFFFFE;}
	.st13{clip-path:url(#SVGID_28_);fill:#FFFFFE;}
	.st14{clip-path:url(#SVGID_30_);fill:#FFFFFE;}
	.st15{clip-path:url(#SVGID_32_);fill:#FFFFFE;}
	.st16{clip-path:url(#SVGID_34_);fill:#FFFFFE;}
	.st17{clip-path:url(#SVGID_36_);fill:#FFFFFE;}
	.st18{clip-path:url(#SVGID_38_);fill:#FFFFFE;}
	.st19{clip-path:url(#SVGID_40_);fill:#FFFFFE;}
	.st20{clip-path:url(#SVGID_42_);fill:#FFFFFE;}
	.st21{clip-path:url(#SVGID_44_);fill:#FFFFFE;}
	.st22{clip-path:url(#SVGID_46_);fill:#FFFFFE;}
	.st23{clip-path:url(#SVGID_48_);fill:#FFFFFE;}
	.st24{clip-path:url(#SVGID_50_);fill:#FFFFFE;}
	.st25{clip-path:url(#SVGID_52_);fill:#FFFFFE;}
	.st26{clip-path:url(#SVGID_54_);fill:#FFFFFE;}
	.st27{clip-path:url(#SVGID_56_);fill:#FFFFFE;}
	.st28{clip-path:url(#SVGID_58_);fill:#FFFFFE;}
	.st29{clip-path:url(#SVGID_60_);fill:#FFFFFE;}
	.st30{clip-path:url(#SVGID_62_);fill:#FFFFFE;}
	.st31{clip-path:url(#SVGID_64_);fill:#FFFFFE;}
	.st32{clip-path:url(#SVGID_66_);fill:#FFFFFE;}
	.st33{clip-path:url(#SVGID_68_);fill:#FFFFFE;}
	.st34{clip-path:url(#SVGID_70_);fill:#FFFFFE;}
</style>
<rect class="st0" width="92.7" height="92.7"/>
<g>
	<g>
		<defs>
			<rect id="SVGID_1_" width="206.9" height="92.7"/>
		</defs>
		<clipPath id="SVGID_2_">
			<use xlink:href="#SVGID_1_"  style="overflow:visible;"/>
		</clipPath>
	</g>
	<g>
		<defs>
			<rect id="SVGID_3_" width="206.9" height="92.7"/>
		</defs>
		<clipPath id="SVGID_4_">
			<use xlink:href="#SVGID_3_"  style="overflow:visible;"/>
		</clipPath>
		<path class="st1" d="M32.7,45.5c0-0.4,0-1.3-0.1-1.6c-0.2-0.4-0.7-0.4-1.1-0.4V43H38v1.9h-0.3c-0.2-1.4-1.1-1.4-2.1-1.4h-0.9
			c-0.4,0-0.3,0-0.3,0.5v2.8c1.6,0.1,1.8-0.6,1.9-1.6h0.4c0,0.6,0,1.2,0,1.7s0,1.1,0,1.6h-0.4c-0.2-1.2-0.8-1.4-1.9-1.4V49
			c0,0.4,0,1,0.2,1.3c0.3,0.4,1.1,0.5,1.6,0.4c1,0,2-0.2,2.2-1.7h0.3v2h-6.6v-0.3c0.2,0,0.5-0.2,0.6-0.5s0.1-1.2,0.1-1.6L32.7,45.5
			L32.7,45.5z"/>
	</g>
	<g>
		<defs>
			<rect id="SVGID_5_" width="206.9" height="92.7"/>
		</defs>
		<clipPath id="SVGID_6_">
			<use xlink:href="#SVGID_5_"  style="overflow:visible;"/>
		</clipPath>
		<path class="st2" d="M52.7,56.7c0-0.4,0-1.3-0.1-1.6c-0.2-0.4-0.7-0.4-1.1-0.4v-0.4H58v1.9h-0.3c-0.2-1.4-1.1-1.4-2.1-1.4h-0.9
			c-0.4,0-0.3,0-0.3,0.5V58c1.6,0.1,1.8-0.6,1.9-1.6h0.4c0,0.6,0,1.2,0,1.7s0,1.1,0,1.6h-0.4c-0.2-1.2-0.8-1.4-1.9-1.4v1.8
			c0,0.4,0,1,0.2,1.3c0.3,0.4,1.1,0.5,1.6,0.4c1,0,2-0.2,2.2-1.7h0.3v2H52V62c0.2,0,0.5-0.2,0.6-0.5s0.1-1.2,0.1-1.6
			C52.7,59.9,52.7,56.7,52.7,56.7z"/>
	</g>
	<g>
		<defs>
			<rect id="SVGID_7_" width="206.9" height="92.7"/>
		</defs>
		<clipPath id="SVGID_8_">
			<use xlink:href="#SVGID_7_"  style="overflow:visible;"/>
		</clipPath>
		<path class="st3" d="M68.3,56.7c0-0.4,0-1.3-0.1-1.6c-0.2-0.4-0.7-0.4-1.1-0.4v-0.4h6.5v1.9h-0.3c-0.2-1.4-1.1-1.4-2.1-1.4h-0.9
			c-0.4,0-0.3,0-0.3,0.5V58c1.6,0.1,1.8-0.6,1.9-1.6h0.4c0,0.6,0,1.2,0,1.7s0,1.1,0,1.6h-0.4c-0.2-1.2-0.8-1.4-1.9-1.4v1.8
			c0,0.4,0,1,0.2,1.3c0.3,0.4,1.1,0.5,1.6,0.4c1,0,2-0.2,2.2-1.7h0.3v2h-6.6V62c0.2,0,0.5-0.2,0.6-0.5s0.1-1.2,0.1-1.6L68.3,56.7
			L68.3,56.7z"/>
	</g>
	<g>
		<defs>
			<rect id="SVGID_9_" width="206.9" height="92.7"/>
		</defs>
		<clipPath id="SVGID_10_">
			<use xlink:href="#SVGID_9_"  style="overflow:visible;"/>
		</clipPath>
		<path class="st4" d="M41.7,48.9c0,0.4,0,1,0.2,1.4c0.3,0.4,0.8,0.4,1.3,0.4c1.9,0,2.2-1.6,2.2-3.3c0-2.3-0.7-4.1-2.9-4.1
			c-0.1,0-0.6,0-0.7,0.1c-0.1,0.1-0.1,0.3-0.1,0.4V48.9z M40.1,45.4c0-0.4,0-1.3-0.1-1.6c-0.1-0.4-0.7-0.4-1-0.4V43
			c0.5,0,1.2,0,1.7,0c0.7,0,1.5,0,2.2,0c2.6,0,4.5,1.6,4.5,4.2c0,2.6-1.6,4-4.2,3.9c-0.7,0-1.6,0-2.4,0c-0.6,0-1.3,0-1.8,0v-0.3
			c0.4,0,0.9,0,1-0.4c0.1-0.3,0.1-1.2,0.1-1.6V45.4z"/>
	</g>
	<g>
		<defs>
			<rect id="SVGID_11_" width="206.9" height="92.7"/>
		</defs>
		<clipPath id="SVGID_12_">
			<use xlink:href="#SVGID_11_"  style="overflow:visible;"/>
		</clipPath>
		<path class="st5" d="M48.1,45.3c0-0.4,0.1-1.2,0-1.5c-0.2-0.4-0.7-0.5-1.1-0.5V43c0.6,0,1.4,0,1.9,0c0.6,0,1.3,0,1.9,0v0.3
			c-0.4,0-0.9,0.2-1.1,0.6c-0.1,0.3,0,1.1,0,1.5v3.4c0,0.4,0,1.2,0.1,1.5c0.2,0.4,0.9,0.5,1.3,0.5v0.3c-0.6,0-1.5,0-2.1,0
			s-1.5,0-2.1,0v-0.3c0.4,0,1-0.1,1.2-0.5c0.1-0.3,0.1-1.2,0.1-1.6v-3.4H48.1z"/>
	</g>
	<g>
		<defs>
			<rect id="SVGID_13_" width="206.9" height="92.7"/>
		</defs>
		<clipPath id="SVGID_14_">
			<use xlink:href="#SVGID_13_"  style="overflow:visible;"/>
		</clipPath>
		<path class="st6" d="M57.5,42.9h0.4l0.1,2.3h-0.4c-0.2-1.3-1.2-2.2-2.4-2.2c-2.3,0-2.8,2.1-2.8,4.1c0,1.7,0.7,3.7,2.9,3.7
			c1.6,0,2.2-1.3,2.5-2.7h0.3v2.8h-0.3l-0.3-0.7c-0.7,0.5-1.2,1-2.7,1c-2.7,0-4.4-1.8-4.4-4.1c0-2.9,1.9-4.5,4.5-4.5
			c1,0,1.5,0.2,2.3,0.7L57.5,42.9z"/>
	</g>
	<g>
		<defs>
			<rect id="SVGID_15_" width="206.9" height="92.7"/>
		</defs>
		<clipPath id="SVGID_16_">
			<use xlink:href="#SVGID_15_"  style="overflow:visible;"/>
		</clipPath>
		<path class="st7" d="M63,47.9l-1.3-3.3l-1.3,3.3H63z M60.2,48.6c-0.2,0.5-0.5,1.2-0.5,1.6c0,0.5,0.6,0.5,1,0.6v0.3
			c-0.5,0-1,0-1.4,0s-1,0-1.4,0v-0.3c0.6-0.1,1.1-0.5,1.2-0.9c0.3-0.8,0.7-1.5,1-2.3l1.9-4.8h0.6l2.5,6.2c0.1,0.3,0.4,1.1,0.6,1.4
			c0.3,0.4,0.6,0.4,1.1,0.5v0.3c-0.6,0-1.3,0-1.9,0s-1.4,0-2,0v-0.3c0.3,0,0.9-0.2,0.9-0.6c0-0.1-0.2-0.7-0.2-0.9l-0.5-1.1h-2.8
			L60.2,48.6z"/>
	</g>
	<g>
		<defs>
			<rect id="SVGID_17_" width="206.9" height="92.7"/>
		</defs>
		<clipPath id="SVGID_18_">
			<use xlink:href="#SVGID_17_"  style="overflow:visible;"/>
		</clipPath>
		<path class="st8" d="M67.6,45.4c0-0.4,0-1.3-0.2-1.6c-0.2-0.4-0.6-0.5-1-0.5V43c0.6,0,1.3,0,1.8,0c0.6,0,1.4,0,2,0v0.3
			c-0.4,0-0.9,0-1,0.4c-0.1,0.3-0.1,1.3-0.1,1.6v3.5c0,1.6,0.1,1.8,1.7,1.8c0.5,0,1,0.1,1.5-0.2s0.8-1,0.9-1.5h0.3l-0.1,2.2
			c-0.2,0-0.4,0-0.6,0c-2.1,0-4.3,0-6.5,0v-0.3c0.4,0,0.9-0.1,1.1-0.5c0.1-0.3,0.1-1.1,0.1-1.5L67.6,45.4L67.6,45.4z"/>
	</g>
	<g>
		<defs>
			<rect id="SVGID_19_" width="206.9" height="92.7"/>
		</defs>
		<clipPath id="SVGID_20_">
			<use xlink:href="#SVGID_19_"  style="overflow:visible;"/>
		</clipPath>
		<path class="st9" d="M37.9,56.7c0-0.4,0-1.3-0.2-1.6c-0.2-0.4-0.6-0.5-1-0.5v-0.3c0.6,0,1.3,0,1.8,0c0.6,0,1.4,0,2,0v0.3
			c-0.4,0-0.9,0-1,0.4c-0.1,0.3-0.1,1.3-0.1,1.6v3.5c0,1.6,0.1,1.8,1.7,1.8c0.5,0,1,0.1,1.5-0.2s0.8-1,0.9-1.5h0.3l-0.1,2.2
			c-0.2,0-0.4,0-0.6,0c-2.1,0-4.3,0-6.5,0v-0.3c0.4,0,0.9-0.1,1.1-0.5c0.1-0.3,0.1-1.1,0.1-1.5L37.9,56.7L37.9,56.7z"/>
	</g>
	<g>
		<defs>
			<rect id="SVGID_21_" width="206.9" height="92.7"/>
		</defs>
		<clipPath id="SVGID_22_">
			<use xlink:href="#SVGID_21_"  style="overflow:visible;"/>
		</clipPath>
		<path class="st10" d="M45.6,56.7c0-0.4,0-1.3-0.2-1.6c-0.2-0.4-0.6-0.5-1-0.5v-0.3c0.6,0,1.3,0,1.8,0c0.6,0,1.4,0,2,0v0.3
			c-0.4,0-0.9,0-1,0.4c-0.1,0.3-0.1,1.3-0.1,1.6v3.5c0,1.6,0.1,1.8,1.7,1.8c0.5,0,1,0.1,1.5-0.2s0.8-1,0.9-1.5h0.3l-0.1,2.2
			c-0.2,0-0.4,0-0.6,0c-2.1,0-4.3,0-6.5,0v-0.3c0.4,0,0.9-0.1,1.1-0.5c0.1-0.3,0.1-1.1,0.1-1.5L45.6,56.7L45.6,56.7z"/>
	</g>
	<g>
		<defs>
			<rect id="SVGID_23_" width="206.9" height="92.7"/>
		</defs>
		<clipPath id="SVGID_24_">
			<use xlink:href="#SVGID_23_"  style="overflow:visible;"/>
		</clipPath>
		<path class="st11" d="M29.8,58.5c0,1.8,0.7,3.9,2.8,3.9c2,0,2.5-2.3,2.5-3.9c0-1.7-0.5-3.9-2.6-3.9C30.7,54.5,29.8,56.2,29.8,58.5
			 M27.9,58.5c0-2.7,2.2-4.4,4.7-4.4c2.4,0,4.5,1.8,4.5,4.3s-2.1,4.3-4.6,4.3C30,62.7,27.9,61.1,27.9,58.5"/>
	</g>
	<g>
		<defs>
			<rect id="SVGID_25_" width="206.9" height="92.7"/>
		</defs>
		<clipPath id="SVGID_26_">
			<use xlink:href="#SVGID_25_"  style="overflow:visible;"/>
		</clipPath>
		<path class="st12" d="M66.2,56.6h-0.4c-0.3-1.6-1.2-2.2-2.4-2.2c-2.2,0-2.7,2.2-2.7,4.1c0,1.6,0.6,3.7,2.6,3.7
			c1.2,0,1.9-0.6,1.9-1.8c0-0.8-0.3-1-1.1-1v-0.3h3.6v0.3c-0.7,0-0.8,0.3-0.8,0.9v1.4c-0.9,0-1.1,0.1-1.9,0.6
			c-0.6,0.3-1.2,0.5-1.9,0.5c-2.5,0-4.2-1.6-4.2-4.1c0-2.6,1.8-4.5,4.4-4.5c0.9,0,1.7,0.2,2.5,0.7l0.3-0.5h0.3L66.2,56.6z"/>
	</g>
	<g>
		<defs>
			<rect id="SVGID_27_" width="206.9" height="92.7"/>
		</defs>
		<clipPath id="SVGID_28_">
			<use xlink:href="#SVGID_27_"  style="overflow:visible;"/>
		</clipPath>
		<path class="st13" d="M14.1,68.8c0,1.5,0.6,3.1,2.2,3.1c1.7,0,2.1-1.8,2.1-3.2c0-1.5-0.5-3.1-2.2-3.1
			C14.5,65.6,14.1,67.5,14.1,68.8 M12.5,68.8c0-2.2,1.8-3.5,3.7-3.5s3.7,1.4,3.7,3.4c0,2.2-1.8,3.5-3.7,3.5
			C14.3,72.2,12.5,70.8,12.5,68.8"/>
	</g>
	<g>
		<defs>
			<rect id="SVGID_29_" width="206.9" height="92.7"/>
		</defs>
		<clipPath id="SVGID_30_">
			<use xlink:href="#SVGID_29_"  style="overflow:visible;"/>
		</clipPath>
		<path class="st14" d="M52.5,68.8c0,1.5,0.6,3.1,2.2,3.1c1.7,0,2.1-1.8,2.1-3.2c0-1.5-0.5-3.1-2.2-3.1
			C52.9,65.6,52.5,67.5,52.5,68.8 M51,68.8c0-2.2,1.8-3.5,3.7-3.5s3.7,1.4,3.7,3.4c0,2.2-1.8,3.5-3.7,3.5C52.7,72.2,51,70.8,51,68.8
			"/>
	</g>
	<g>
		<defs>
			<rect id="SVGID_31_" width="206.9" height="92.7"/>
		</defs>
		<clipPath id="SVGID_32_">
			<use xlink:href="#SVGID_31_"  style="overflow:visible;"/>
		</clipPath>
		<path class="st15" d="M25,67h-0.2c-0.1-0.4-0.2-0.8-0.7-1c-0.4-0.2-0.9-0.2-1.3-0.2c-0.8,0-0.8-0.1-0.8,0.6v2.1
			c1,0,1.3-0.2,1.5-1.1h0.3c0,0.4,0,0.9,0,1.4c0,0.4,0,0.8,0,1.2h-0.3c-0.2-1.1-0.5-1.1-1.5-1.1v1.2c0,0.3,0,0.9,0.1,1.2
			c0.1,0.4,0.6,0.4,1,0.5v0.3c-0.5,0-1.1,0-1.6,0s-1.1,0-1.7,0v-0.3c0.3,0,0.8,0,0.9-0.4c0.1-0.3,0.1-1,0.1-1.3v-2.7
			c0-0.3,0-1-0.1-1.3s-0.6-0.4-0.9-0.4v-0.3c0.6,0,1.3,0,1.9,0c1.1,0,2.1,0,3.2,0L25,67z"/>
	</g>
	<g>
		<defs>
			<rect id="SVGID_33_" width="206.9" height="92.7"/>
		</defs>
		<clipPath id="SVGID_34_">
			<use xlink:href="#SVGID_33_"  style="overflow:visible;"/>
		</clipPath>
		<path class="st16" d="M31.6,67.4l-0.7,2.5c-0.3,0.8-0.5,1.6-0.8,2.4h-0.4L28,67c-0.1-0.2-0.2-0.7-0.3-0.9
			c-0.2-0.2-0.4-0.3-0.7-0.3v-0.3c0.5,0,1,0,1.4,0c0.5,0,1.1,0,1.6,0v0.3c-0.3,0-0.9,0-0.9,0.5c0,0.2,0.3,1,0.3,1.2l0.9,2.9l1.5-4.9
			h0.4l1.6,4.7l0.6-1.7c0.1-0.4,0.5-1.7,0.5-2.1c0-0.6-0.3-0.6-0.8-0.7v-0.3c0.4,0,0.7,0,1.1,0c0.3,0,0.7,0,1,0v0.3
			c-0.7,0-0.9,0.8-1,1.3l-1.6,5.2h-0.5L31.6,67.4z"/>
	</g>
	<g>
		<defs>
			<rect id="SVGID_35_" width="206.9" height="92.7"/>
		</defs>
		<clipPath id="SVGID_36_">
			<use xlink:href="#SVGID_35_"  style="overflow:visible;"/>
		</clipPath>
		<path class="st17" d="M37.1,67.4c0-0.3,0-1.1-0.1-1.3c-0.1-0.3-0.5-0.3-0.9-0.3v-0.3c0.5,0,1.1,0,1.6,0s1,0,1.5,0v0.3
			c-0.3,0-0.7,0-0.9,0.4c-0.1,0.3,0,1,0,1.3v2.7c0,0.3,0,1,0.1,1.2c0.1,0.3,0.6,0.4,0.9,0.4v0.3c-0.5,0-1.1,0-1.6,0s-1.1,0-1.6,0
			v-0.3c0.3,0,0.8-0.1,0.9-0.4c0.1-0.3,0.1-0.9,0.1-1.2V67.4z"/>
	</g>
	<g>
		<defs>
			<rect id="SVGID_37_" width="206.9" height="92.7"/>
		</defs>
		<clipPath id="SVGID_38_">
			<use xlink:href="#SVGID_37_"  style="overflow:visible;"/>
		</clipPath>
		<path class="st18" d="M39.6,70h0.3c0.2,1,0.7,1.8,1.9,1.8c0.8,0,1.3-0.4,1.3-1.2c0-0.8-0.9-1.2-1.5-1.5c-0.9-0.3-1.9-0.9-1.9-2
			s1-1.8,2.1-1.8c0.5,0,1,0.1,1.5,0.5l0.2-0.4h0.2l0.1,1.9h-0.3c-0.2-0.8-0.7-1.6-1.6-1.6c-0.6,0-1.1,0.4-1.1,1
			c0,0.8,0.8,0.9,1.4,1.2c1.3,0.6,2.2,1,2.2,2.4c0,1.2-1,1.9-2.5,1.9c-0.7,0-1.2-0.1-1.7-0.5L39.9,72h-0.3C39.6,72,39.6,70,39.6,70z
			"/>
	</g>
	<g>
		<defs>
			<rect id="SVGID_39_" width="206.9" height="92.7"/>
		</defs>
		<clipPath id="SVGID_40_">
			<use xlink:href="#SVGID_39_"  style="overflow:visible;"/>
		</clipPath>
		<path class="st19" d="M70.7,67.4c0-0.3,0-1.1-0.1-1.3c-0.1-0.3-0.5-0.3-0.9-0.3v-0.3c0.5,0,1.1,0,1.6,0s1,0,1.5,0v0.3
			c-0.3,0-0.7,0-0.9,0.4c-0.1,0.3,0,1,0,1.3v2.7c0,0.3,0,1,0.1,1.2c0.1,0.3,0.6,0.4,0.9,0.4v0.3c-0.5,0-1.1,0-1.6,0s-1.1,0-1.6,0
			v-0.3c0.3,0,0.8-0.1,0.9-0.4s0.1-0.9,0.1-1.2V67.4z"/>
	</g>
	<g>
		<defs>
			<rect id="SVGID_41_" width="206.9" height="92.7"/>
		</defs>
		<clipPath id="SVGID_42_">
			<use xlink:href="#SVGID_41_"  style="overflow:visible;"/>
		</clipPath>
		<path class="st20" d="M65.1,70h0.3c0.2,1,0.7,1.8,1.9,1.8c0.8,0,1.3-0.4,1.3-1.2c0-0.8-0.9-1.2-1.5-1.5c-0.9-0.3-1.9-0.9-1.9-2
			s1-1.8,2.1-1.8c0.5,0,1,0.1,1.5,0.5l0.2-0.4h0.2l0.1,1.9H69c-0.2-0.8-0.7-1.6-1.6-1.6c-0.6,0-1.1,0.4-1.1,1c0,0.8,0.8,0.9,1.4,1.2
			c1.3,0.6,2.2,1,2.2,2.4c0,1.2-1,1.9-2.5,1.9c-0.7,0-1.2-0.1-1.7-0.5L65.4,72h-0.3V70z"/>
	</g>
	<g>
		<defs>
			<rect id="SVGID_43_" width="206.9" height="92.7"/>
		</defs>
		<clipPath id="SVGID_44_">
			<use xlink:href="#SVGID_43_"  style="overflow:visible;"/>
		</clipPath>
		<path class="st21" d="M50.1,65.5h0.2l0.1,1.9h-0.2c-0.4-1.1-0.6-1.8-2.1-1.8c-1.7,0-2.1,1.7-2.1,3.2c0,1.3,0.6,3,2.1,3
			c1.4,0,1.9-1,2.2-2.2h0.3v2.2h-0.2l-0.2-0.5c-0.7,0.5-1.3,0.8-2.2,0.8c-2,0-3.5-1.3-3.5-3.3c0-2.2,1.4-3.6,3.6-3.6
			c0.8,0,1.2,0.1,1.9,0.6L50.1,65.5z"/>
	</g>
	<g>
		<defs>
			<rect id="SVGID_45_" width="206.9" height="92.7"/>
		</defs>
		<clipPath id="SVGID_46_">
			<use xlink:href="#SVGID_45_"  style="overflow:visible;"/>
		</clipPath>
		<path class="st22" d="M59,66.3c-0.3-0.4-0.5-0.6-1-0.6v-0.3c0.3,0,0.7,0,1,0s0.6,0,0.9,0l4.1,4.9v-2.5c0-0.4,0-1.1-0.1-1.5
			c-0.1-0.6-0.3-0.5-0.8-0.6v-0.3c0.4,0,0.7,0,1.1,0c0.3,0,0.7,0,1.1,0v0.3c-0.4,0-0.6,0-0.8,0.4c-0.1,0.3-0.1,1.3-0.1,1.7v4.3h-0.5
			c-0.2-0.3-0.5-0.6-0.7-0.9l-3.7-4.5v3.2c0,0.4,0,1,0.1,1.4s0.5,0.5,0.9,0.5v0.3c-0.4,0-0.8,0-1.2,0s-0.8,0-1.1,0v-0.3
			c0.4,0,0.8-0.1,0.9-0.6c0.1-0.4,0-0.9,0-1.3v-3.6H59z"/>
	</g>
	<g>
		<defs>
			<rect id="SVGID_47_" width="206.9" height="92.7"/>
		</defs>
		<clipPath id="SVGID_48_">
			<use xlink:href="#SVGID_47_"  style="overflow:visible;"/>
		</clipPath>
		<path class="st23" d="M74.2,66.3c-0.3-0.4-0.5-0.6-1-0.6v-0.3c0.3,0,0.7,0,1,0s0.6,0,0.9,0l4.1,4.9v-2.5c0-0.4,0-1.1-0.1-1.5
			c-0.1-0.6-0.3-0.5-0.8-0.6v-0.3c0.4,0,0.7,0,1.1,0c0.3,0,0.7,0,1.1,0v0.3c-0.4,0-0.6,0-0.8,0.4c-0.1,0.3-0.1,1.3-0.1,1.7v4.3h-0.5
			c-0.2-0.3-0.5-0.6-0.7-0.9l-3.7-4.5v3.2c0,0.4,0,1,0.1,1.4s0.5,0.5,0.9,0.5v0.3c-0.4,0-0.8,0-1.2,0c-0.4,0-0.8,0-1.1,0v-0.3
			c0.4,0,0.8-0.1,0.9-0.6c0.1-0.4,0-0.9,0-1.3v-3.6H74.2z"/>
	</g>
	<g>
		<defs>
			<rect id="SVGID_49_" width="206.9" height="92.7"/>
		</defs>
		<clipPath id="SVGID_50_">
			<use xlink:href="#SVGID_49_"  style="overflow:visible;"/>
		</clipPath>
		<path class="st24" d="M30.2,49.2c0,1.1-0.1,1.5,1.2,1.6v0.4c-0.8,0-1.5,0-2.2-0.1c-0.7,0-1.4,0-2.2,0.1v-0.4
			c1.1-0.1,1.3-0.4,1.3-1.6v-5.8l0,0L26.7,47c-0.6,1.4-1.2,2.7-1.8,4.1h-0.4l-3.4-7.7l0,0V49c0,1.1,0.2,1.7,1.3,1.8v0.4
			c-0.5,0-1.1,0-1.6-0.1c-0.5,0-1,0-1.5,0.1v-0.4c1.1,0,1.3-0.7,1.3-1.3v-6.1c0-0.4-0.1-0.8-0.1-1c-0.2-0.5-0.9-0.5-1.3-0.5v-0.4
			c0.5,0,1.2,0,1.7,0.1c0.5,0,1,0,1.5-0.1l3.1,7.1l3.1-7.1c0.5,0,1.1,0,1.5,0.1c0.5,0,1.1,0,1.6-0.1v0.4c-0.5,0-1,0.1-1.3,0.5
			c-0.1,0.3-0.1,1-0.1,1.6v5.2H30.2z"/>
	</g>
	<g>
		<defs>
			<rect id="SVGID_51_" width="206.9" height="92.7"/>
		</defs>
		<clipPath id="SVGID_52_">
			<use xlink:href="#SVGID_51_"  style="overflow:visible;"/>
		</clipPath>
		<path class="st25" d="M26.8,52.7h0.4l0.1,2.9h-0.4c-0.3-1.8-1.6-2.6-3.1-2.6c-2.8,0-3.2,3.2-3.2,4.8c0,2.1,0.9,4.5,3.4,4.5
			c2,0,2.7-1.6,3.1-3.3h0.4v3.3h-0.3l-0.4-0.7c-0.9,0.7-2.1,1.2-3.2,1.2c-2.8,0-5.3-1.6-5.3-5c0-3.3,2.3-5.3,5.3-5.3
			c1.1,0,1.9,0.4,2.8,0.9L26.8,52.7z"/>
	</g>
	<g>
		<defs>
			<rect id="SVGID_53_" width="206.9" height="92.7"/>
		</defs>
		<clipPath id="SVGID_54_">
			<use xlink:href="#SVGID_53_"  style="overflow:visible;"/>
		</clipPath>
		<path class="st26" d="M45.7,33.5c-0.2,0-0.4,0.2-0.4,0.4s0.1,0.3,0.3,0.3c0.2,0.1,0.5,0.2,0.9,0.4c0-0.2,0-0.5,0-0.8
			C46.1,33.6,45.8,33.5,45.7,33.5"/>
	</g>
	<g>
		<defs>
			<rect id="SVGID_55_" width="206.9" height="92.7"/>
		</defs>
		<clipPath id="SVGID_56_">
			<use xlink:href="#SVGID_55_"  style="overflow:visible;"/>
		</clipPath>
		<path class="st27" d="M46.8,33.1c0.2,0.1,0.4,0.2,0.6,0.2c0.2,0,0.4-0.1,0.4-0.3s-0.1-0.4-0.4-0.5l-0.6-0.3
			C46.8,32.6,46.8,32.9,46.8,33.1"/>
	</g>
	<g>
		<defs>
			<rect id="SVGID_57_" width="206.9" height="92.7"/>
		</defs>
		<clipPath id="SVGID_58_">
			<use xlink:href="#SVGID_57_"  style="overflow:visible;"/>
		</clipPath>
		<path class="st28" d="M48.2,24.1c0-0.3-0.1-0.5-0.8-0.8c-0.1,0-0.2-0.1-0.4-0.2c0,0.4,0,0.8,0,1.3c0.2,0.1,0.4,0.2,0.7,0.2
			C47.9,24.6,48.2,24.5,48.2,24.1"/>
	</g>
	<g>
		<defs>
			<rect id="SVGID_59_" width="206.9" height="92.7"/>
		</defs>
		<clipPath id="SVGID_60_">
			<use xlink:href="#SVGID_59_"  style="overflow:visible;"/>
		</clipPath>
		<path class="st29" d="M45.7,25.1c-0.3,0-0.5,0.1-0.5,0.5c0,0.2,0,0.5,0.6,0.7c0.1,0.1,0.3,0.1,0.4,0.2c0-0.4,0-0.8,0-1.2
			C46,25.1,45.9,25.1,45.7,25.1"/>
	</g>
	<g>
		<defs>
			<rect id="SVGID_61_" width="206.9" height="92.7"/>
		</defs>
		<clipPath id="SVGID_62_">
			<use xlink:href="#SVGID_61_"  style="overflow:visible;"/>
		</clipPath>
		<path class="st30" d="M46.9,29.1c0.2,0.1,0.4,0.2,0.6,0.2c0.3,0,0.5-0.2,0.5-0.5c0-0.4-0.3-0.5-0.5-0.6c-0.1,0-0.3-0.1-0.5-0.2
			C46.9,28.4,46.9,28.7,46.9,29.1"/>
	</g>
	<g>
		<defs>
			<rect id="SVGID_63_" width="206.9" height="92.7"/>
		</defs>
		<clipPath id="SVGID_64_">
			<use xlink:href="#SVGID_63_"  style="overflow:visible;"/>
		</clipPath>
		<path class="st31" d="M45.6,29.7c-0.2,0-0.4,0.2-0.4,0.4c0,0.2,0.2,0.3,0.4,0.5l0.8,0.3c0-0.3,0-0.6,0-1
			C46.1,29.8,45.9,29.7,45.6,29.7"/>
	</g>
	<g>
		<defs>
			<rect id="SVGID_65_" width="206.9" height="92.7"/>
		</defs>
		<clipPath id="SVGID_66_">
			<use xlink:href="#SVGID_65_"  style="overflow:visible;"/>
		</clipPath>
		<path class="st32" d="M59.6,20.5c-1.4,0.1-3.8-0.6-5.1-1.1c-2.2-0.8-5.9-2-7.8-0.1c-1.9-1.9-5.6-0.7-7.8,0.1
			c-1.3,0.5-3.7,1.2-5.1,1.1L29.3,37c1,0.2,4.6,0,6.6-0.6c3.4-1,8.3-1.6,10.9,1.7c2.6-3.3,7.5-2.7,10.9-1.7c2,0.6,5.6,0.9,6.6,0.7
			L59.6,20.5z M42.6,33.3L42.6,33.3c-1.5-0.3-3.6-0.2-5.3,0.1c-1.9,0.4-2.9,0.8-5,1h-0.1c-0.2,0-0.4-0.2-0.3-0.4
			c0-0.2,0.2-0.3,0.4-0.3h0.1c2.2-0.2,3.7-0.7,4.9-1c2.1-0.5,4.2-0.4,5.2-0.1h0.2c0.2,0,0.3,0.2,0.3,0.4
			C43,33.1,42.8,33.3,42.6,33.3 M42.7,30.8h-0.2c-0.9-0.2-3.3-0.1-4.9,0.3c-1.9,0.5-3,0.8-4.8,1h-0.1c-0.2,0-0.3-0.2-0.3-0.4
			c0-0.2,0.2-0.3,0.4-0.3h0.1c2-0.2,3.4-0.7,4.6-1c2-0.5,3.9-0.5,5.1-0.4h0.2c0.2,0,0.3,0.2,0.3,0.4C43.1,30.6,42.9,30.8,42.7,30.8
			 M42.8,28.3L42.8,28.3c-1-0.2-3.1,0-4.7,0.5c-1.9,0.6-3.4,0.9-4.6,1.1h-0.1c-0.2,0-0.3-0.2-0.3-0.4c0-0.2,0.2-0.3,0.3-0.3h0.1
			c1.5-0.2,3-0.6,4.1-1c2-0.6,3.9-0.7,5-0.6h0.2c0.2,0,0.3,0.2,0.3,0.4C43.2,28.2,43,28.3,42.8,28.3 M42.9,25.8L42.9,25.8
			c-1-0.1-3.2,0.2-4.7,0.7c-1.7,0.6-3.1,0.9-4.1,1H34c-0.2,0-0.4-0.2-0.3-0.3c0-0.2,0.2-0.3,0.4-0.3h0.1c1.5-0.2,2.9-0.6,4-1
			c2-0.6,3.7-0.8,4.7-0.7H43c0.2,0,0.3,0.2,0.3,0.4C43.2,25.7,43.1,25.8,42.9,25.8 M43,23.4L43,23.4c-1.4,0.1-3.1,0.4-4.8,1
			s-3.4,0.9-3.5,0.9h-0.1c-0.2,0-0.3-0.2-0.3-0.4c0-0.2,0.2-0.3,0.4-0.3h0.1c0.1,0,1.3-0.1,3.6-0.9c1.7-0.6,3.9-1,4.6-1h0.1
			c0.2,0,0.3,0.2,0.3,0.3C43.3,23.2,43.2,23.4,43,23.4 M43.1,20.9L43.1,20.9c-0.8,0.1-2.6,0.5-4.3,1.1c-1.7,0.7-3.4,1-3.5,1h-0.1
			c-0.2,0-0.3-0.2-0.3-0.3c0-0.2,0.2-0.3,0.3-0.3h0.1c0.1,0,1.8-0.3,3.6-1c1.7-0.7,3.5-1,4.1-1.1h0.1c0.2,0,0.3,0.2,0.3,0.3
			C43.4,20.7,43.3,20.9,43.1,20.9 M48.2,27.3c0.6,0.3,0.9,0.5,0.9,1.4s-0.8,1.6-1.6,1.6c-0.3,0-0.5-0.1-0.7-0.2c0,0.3,0,0.6,0,0.9
			l1.1,0.5c0.6,0.3,0.8,0.7,0.8,1.3c0,0.7-0.7,1.3-1.3,1.3c-0.2,0-0.5-0.1-0.7-0.2c0,0.3,0,0.5,0,0.7c0.4,0.2,0.8,0.4,0.9,0.4
			c0.3,0.1,0.5,0.4,0.4,0.7c-0.1,0.2-0.4,0.2-0.7,0.1c-0.1,0-0.3-0.2-0.6-0.3c0,0.5,0,0.9,0,0.9c0,0.2-0.1,0.2-0.1,0.2
			c-0.1,0-0.1,0-0.1-0.2c0,0,0-0.4,0-1.1c-0.4-0.2-0.9-0.4-1.1-0.5c-0.6-0.3-0.8-0.8-0.8-1.1c0-0.7,0.5-1.1,1.1-1.1
			c0.3,0,0.5,0.1,0.7,0.2c0-0.3,0-0.6,0-0.9l-1-0.4c-0.7-0.3-1-0.8-1-1.4c0-1.1,0.9-1.5,1.5-1.5c0.2,0,0.4,0,0.5,0.1
			c0-0.4,0-0.7,0-1.1c-0.1,0-0.2-0.1-0.4-0.1c-1.6-0.5-2-1.1-2-1.9c0-1.3,1-1.7,1.7-1.7c0.2,0,0.3,0,0.5,0.1c0-0.5,0-0.9,0-1.2
			c-0.3-0.1-0.7-0.3-1.1-0.5c-0.8-0.4-1.4-1-1.4-1.7c0-0.5,0.2-0.8,0.5-1.1c0.3-0.3,0.8-0.4,1-0.2c0.2,0.2,0.2,0.6,0,0.8
			c-0.1,0.2-0.3,0.2-0.3,0.5s0.3,0.5,0.7,0.6c0.2,0.1,0.4,0.2,0.5,0.2c0-0.1,0-0.2,0-0.2S46,21.1,45.9,21c-0.1-0.1-0.1-0.2-0.1-0.2
			v-0.4c0-0.2,0.1-0.2,0.2-0.2c0.1,0.1,0.5,0.2,0.5,0.2h0.1c0,0,0.3-0.2,0.5-0.2c0.1-0.1,0.2,0,0.2,0.2v0.4c0,0,0,0.1-0.1,0.2
			S47,21.2,47,21.2s0,0.2,0,0.6c0.5,0.2,0.9,0.4,1.1,0.5c0.8,0.3,1.4,0.8,1.4,1.8c0,0.6-0.6,1.6-1.6,1.6c-0.3,0-0.7,0-1-0.1
			c0,0.4,0,0.7,0,1.1C47.4,27,47.9,27.2,48.2,27.3 M50.3,20.2L50.3,20.2c0.7,0,2.5,0.4,4.2,1.1c1.7,0.7,3.4,1,3.5,1h0.1
			c0.2,0,0.3,0.2,0.3,0.4c0,0.2-0.2,0.3-0.4,0.3h-0.1c-0.1,0-1.8-0.3-3.5-1s-3.5-1.1-4.2-1.1h-0.1c-0.2,0-0.3-0.2-0.3-0.4
			C49.9,20.4,50.1,20.2,50.3,20.2 M50.4,22.7L50.4,22.7c0.8-0.1,2.9,0.4,4.7,1c2.3,0.8,3.5,0.9,3.6,0.9h0.1c0.2,0,0.3,0.2,0.3,0.3
			s-0.2,0.3-0.4,0.3h-0.1c-0.1,0-1.8-0.3-3.5-0.9s-3.4-1-4.7-1h-0.1c-0.2,0-0.3-0.2-0.3-0.3C50,22.8,50.2,22.7,50.4,22.7 M50.4,25.1
			L50.4,25.1c1.1-0.1,2.7,0.1,4.8,0.7c1.1,0.3,2.5,0.8,4,1h0.1c0.2,0,0.3,0.2,0.3,0.4c0,0.2-0.2,0.3-0.4,0.3h-0.1
			c-1.1-0.1-2.4-0.4-4.1-1c-1.5-0.5-3.7-0.8-4.6-0.7h-0.1c-0.2,0-0.3-0.2-0.3-0.3C50.1,25.3,50.2,25.1,50.4,25.1 M50.5,27.6h0.2
			c1.1-0.2,3,0,5,0.6c1.2,0.3,2.6,0.8,4.1,1h0.1c0.2,0,0.3,0.2,0.3,0.4c0,0.2-0.2,0.3-0.4,0.3h-0.1c-1.2-0.2-2.7-0.5-4.6-1.1
			c-1.5-0.5-3.6-0.7-4.6-0.5h-0.1c-0.2,0-0.3-0.2-0.3-0.3C50.2,27.8,50.3,27.6,50.5,27.6 M50.6,30.1h0.2c1.1-0.1,3-0.1,5.1,0.4
			c1.2,0.3,2.6,0.8,4.6,1h0.1c0.2,0,0.3,0.2,0.3,0.3c0,0.2-0.2,0.3-0.4,0.3h-0.1c-1.8-0.2-2.9-0.5-4.8-1.1c-1.6-0.4-4-0.5-4.9-0.3
			h-0.2c-0.2,0-0.3-0.2-0.3-0.3C50.3,30.3,50.4,30.1,50.6,30.1 M61.1,34.5L61.1,34.5c-2.2-0.2-3.2-0.6-5.1-1.1
			c-1.7-0.4-3.8-0.5-5.2-0.2h-0.1c-0.2,0-0.4-0.2-0.4-0.4s0.2-0.3,0.4-0.3h0.2c1-0.2,3.2-0.3,5.2,0.2c1.2,0.3,2.7,0.8,4.9,1h0.1
			c0.2,0,0.3,0.2,0.3,0.4C61.4,34.3,61.3,34.5,61.1,34.5"/>
	</g>
	<g>
		<defs>
			<rect id="SVGID_67_" width="206.9" height="92.7"/>
		</defs>
		<clipPath id="SVGID_68_">
			<use xlink:href="#SVGID_67_"  style="overflow:visible;"/>
		</clipPath>
		<path class="st33" d="M46.5,40.5c1.2,0,2-0.3,2.6-0.7h15.7l-0.3-1.3H48.8c-0.4,0.4-1,0.7-2.2,0.7l0,0c-1.2,0-1.8-0.4-2.2-0.7H28.9
			l-0.4,1.3H44C44.6,40.2,45.4,40.5,46.5,40.5L46.5,40.5z"/>
	</g>
	<g>
		<defs>
			<rect id="SVGID_69_" width="206.9" height="92.7"/>
		</defs>
		<clipPath id="SVGID_70_">
			<use xlink:href="#SVGID_69_"  style="overflow:visible;"/>
		</clipPath>
		<path class="st34" d="M76.4,61h0.2c0.1,0,0.1,0,0.2,0c0,0,0.1,0,0.1,0.1v0.1c0,0,0,0.1-0.1,0.1c0,0-0.1,0-0.2,0h-0.2V61z
			 M76.4,61.9v-0.5h0.1c0.1,0,0.1,0,0.1,0s0.1,0.1,0.2,0.3l0.1,0.2h0.2L77,61.7c-0.1-0.1-0.1-0.2-0.2-0.2c0,0-0.1,0-0.1-0.1
			c0.1,0,0.2,0,0.2-0.1c0.1-0.1,0.1-0.1,0.1-0.2c0-0.1,0-0.1-0.1-0.2l-0.1-0.1c-0.1,0-0.1,0-0.3,0h-0.4v1.1H76.4z M77.1,60.6
			c0.1,0.1,0.2,0.2,0.3,0.3c0.1,0.1,0.1,0.3,0.1,0.4c0,0.1,0,0.3-0.1,0.4c-0.1,0.1-0.2,0.2-0.3,0.3c-0.1,0.1-0.3,0.1-0.4,0.1
			s-0.3,0-0.4-0.1c-0.2,0-0.3-0.1-0.3-0.2c-0.1-0.1-0.1-0.3-0.1-0.4c0-0.1,0-0.3,0.1-0.4c0.1-0.1,0.2-0.2,0.3-0.3
			c0.1-0.1,0.3-0.1,0.4-0.1C76.8,60.5,77,60.5,77.1,60.6 M76.2,60.5c-0.2,0.1-0.3,0.2-0.4,0.4s-0.1,0.3-0.1,0.5s0,0.3,0.1,0.5
			s0.2,0.3,0.4,0.4c0.2,0.1,0.3,0.1,0.5,0.1s0.3,0,0.5-0.1s0.3-0.2,0.4-0.4s0.1-0.3,0.1-0.5s0-0.3-0.1-0.5s-0.2-0.3-0.4-0.4
			c-0.2-0.1-0.3-0.1-0.5-0.1S76.4,60.4,76.2,60.5"/>
	</g>
</g>
</svg>
